<svg id="al93k4as9h1z" version="1.1" xmlns="http://www.w3.org/2000/svg" xmlns:xlink="http://www.w3.org/1999/xlink" width="281.8476389572061" height="60" viewBox="0 0 281.8476389572061 60" style="" ><svg stroke-opacity="0" stroke="#009ddc" stroke-width="0" fill="#009ddc" x="0" y="0" ><path d="M15,0h30a15,15 0 0 1 15,15v30a15,15 0 0 1 -15,15h-30a15,15 0 0 1 -15,-15v-30a15,15 0 0 1 15,-15z" ></path></svg><svg x="17.916666666666664" y="14.999999999999998" stroke="#009ddc" stroke-width="0" stroke-linecap="round" stroke-linejoin="round" fill="#fff" ><path d="M0.000-0.000L24.167-0.000L24.167 4.375L15.000 4.375L15.000 30L9.167 30L9.167 4.375L0.000 4.375L0.000-0.000Z" ></path></svg><svg fill="#009ddc" x="74.01869158878505" y="15.000000000000002" ><path d="M0 1.184L22.895 1.184 22.895 5.329 14.211 5.329 14.211 29.605 8.684 29.605 8.684 5.329 0 5.329 0 1.184ZM25.737 11.763L25.737 11.763 25.737 11.763Q28.776 8.684 33.553 8.684L33.553 8.684 33.553 8.684Q38.329 8.684 41.368 11.763L41.368 11.763 41.368 11.763Q44.408 14.842 44.408 19.342L44.408 19.342 44.408 19.342Q44.408 23.842 41.368 26.921L41.368 26.921 41.368 26.921Q38.329 30 33.553 30L33.553 30 33.553 30Q28.776 30 25.737 26.921L25.737 26.921 25.737 26.921Q22.697 23.842 22.697 19.342L22.697 19.342 22.697 19.342Q22.697 14.842 25.737 11.763M29.822 24.138L29.822 24.138 29.822 24.138Q31.263 25.855 33.553 25.855L33.553 25.855 33.553 25.855Q35.842 25.855 37.283 24.138L37.283 24.138 37.283 24.138Q38.724 22.421 38.724 19.342L38.724 19.342 38.724 19.342Q38.724 16.263 37.283 14.546L37.283 14.546 37.283 14.546Q35.842 12.829 33.553 12.829L33.553 12.829 33.553 12.829Q31.263 12.829 29.822 14.546L29.822 14.546 29.822 14.546Q28.382 16.263 28.382 19.342L28.382 19.342 28.382 19.342Q28.382 22.421 29.822 24.138ZM51.513 12.039L51.513 12.039 51.513 12.039Q52.303 10.382 53.822 9.533L53.822 9.533 53.822 9.533Q55.342 8.684 57.039 8.684L57.039 8.684 57.039 8.684Q65.724 8.684 65.724 18.158L65.724 18.158 65.724 29.605 60.197 29.605 60.197 18.158 60.197 18.158Q60.197 12.829 56.25 12.829L56.25 12.829 56.25 12.829Q54.355 12.829 52.934 14.408L52.934 14.408 52.934 14.408Q51.513 15.987 51.513 18.553L51.513 18.553 51.513 29.605 45.987 29.605 45.987 9.079 51.118 9.079 51.118 9.079Q51.513 10.461 51.513 12.039ZM70.145 11.763L70.145 11.763 70.145 11.763Q73.184 8.684 77.961 8.684L77.961 8.684 77.961 8.684Q82.737 8.684 85.776 11.763L85.776 11.763 85.776 11.763Q88.816 14.842 88.816 19.342L88.816 19.342 88.816 19.342Q88.816 23.842 85.776 26.921L85.776 26.921 85.776 26.921Q82.737 30 77.961 30L77.961 30 77.961 30Q73.184 30 70.145 26.921L70.145 26.921 70.145 26.921Q67.105 23.842 67.105 19.342L67.105 19.342 67.105 19.342Q67.105 14.842 70.145 11.763M74.23 24.138L74.23 24.138 74.23 24.138Q75.671 25.855 77.961 25.855L77.961 25.855 77.961 25.855Q80.25 25.855 81.691 24.138L81.691 24.138 81.691 24.138Q83.132 22.421 83.132 19.342L83.132 19.342 83.132 19.342Q83.132 16.263 81.691 14.546L81.691 14.546 81.691 14.546Q80.25 12.829 77.961 12.829L77.961 12.829 77.961 12.829Q75.671 12.829 74.23 14.546L74.23 14.546 74.23 14.546Q72.789 16.263 72.789 19.342L72.789 19.342 72.789 19.342Q72.789 22.421 74.23 24.138ZM113.487 8.684L113.487 8.684 113.487 8.684Q117.474 8.684 119.329 10.776L119.329 10.776 119.329 10.776Q121.184 12.868 121.184 16.974L121.184 16.974 121.184 29.605 115.658 29.605 115.658 16.974 115.658 16.974Q115.658 14.803 114.928 13.816L114.928 13.816 114.928 13.816Q114.197 12.829 112.697 12.829L112.697 12.829 112.697 12.829Q110.842 12.829 109.697 14.388L109.697 14.388 109.697 14.388Q108.553 15.947 108.553 18.553L108.553 18.553 108.553 29.605 103.026 29.605 103.026 16.974 103.026 16.974Q103.026 14.803 102.296 13.816L102.296 13.816 102.296 13.816Q101.566 12.829 100.066 12.829L100.066 12.829 100.066 12.829Q98.211 12.829 97.066 14.388L97.066 14.388 97.066 14.388Q95.921 15.947 95.921 18.553L95.921 18.553 95.921 29.605 90.395 29.605 90.395 9.079 95.526 9.079 95.526 9.079Q95.921 10.461 95.921 12.039L95.921 12.039 95.921 12.039Q96.553 10.579 97.875 9.632L97.875 9.632 97.875 9.632Q99.197 8.684 100.855 8.684L100.855 8.684 100.855 8.684Q106.382 8.684 107.921 12.829L107.921 12.829 107.921 12.829Q109.737 8.684 113.487 8.684ZM125.605 11.763L125.605 11.763 125.605 11.763Q128.645 8.684 133.421 8.684L133.421 8.684 133.421 8.684Q138.197 8.684 141.237 11.763L141.237 11.763 141.237 11.763Q144.276 14.842 144.276 19.342L144.276 19.342 144.276 19.342Q144.276 23.842 141.237 26.921L141.237 26.921 141.237 26.921Q138.197 30 133.421 30L133.421 30 133.421 30Q128.645 30 125.605 26.921L125.605 26.921 125.605 26.921Q122.566 23.842 122.566 19.342L122.566 19.342 122.566 19.342Q122.566 14.842 125.605 11.763M129.691 24.138L129.691 24.138 129.691 24.138Q131.132 25.855 133.421 25.855L133.421 25.855 133.421 25.855Q135.711 25.855 137.151 24.138L137.151 24.138 137.151 24.138Q138.592 22.421 138.592 19.342L138.592 19.342 138.592 19.342Q138.592 16.263 137.151 14.546L137.151 14.546 137.151 14.546Q135.711 12.829 133.421 12.829L133.421 12.829 133.421 12.829Q131.132 12.829 129.691 14.546L129.691 14.546 129.691 14.546Q128.25 16.263 128.25 19.342L128.25 19.342 128.25 19.342Q128.25 22.421 129.691 24.138ZM144.868 14.605L144.868 14.605 144.868 14.605Q144.868 12.237 147.099 10.461L147.099 10.461 147.099 10.461Q149.329 8.684 153.553 8.684L153.553 8.684 153.553 8.684Q154.737 8.684 155.822 8.842L155.822 8.842 155.822 8.842Q156.908 9 157.382 9.158L157.382 9.158 157.895 9.276 157.895 13.461 157.895 13.461Q155.763 12.829 153.158 12.829L153.158 12.829 153.158 12.829Q150.553 12.829 150.553 14.605L150.553 14.605 150.553 14.605Q150.553 15.908 151.934 16.5L151.934 16.5 151.934 16.5Q155.882 18.355 157.48 19.934L157.48 19.934 157.48 19.934Q159.079 21.513 159.079 24.079L159.079 24.079 159.079 24.079Q159.079 30 151.184 30L151.184 30 151.184 30Q149.566 30 148.046 29.803L148.046 29.803 148.046 29.803Q146.526 29.605 145.776 29.408L145.776 29.408 145.066 29.211 145.066 25.066 145.066 25.066Q147.829 25.855 151.184 25.855L151.184 25.855 151.184 25.855Q152.25 25.855 152.822 25.461L152.822 25.461 152.822 25.461Q153.395 25.066 153.395 24.474L153.395 24.474 153.395 24.474Q153.395 23.684 152.526 22.993L152.526 22.993 152.526 22.993Q151.658 22.303 149.645 21.395L149.645 21.395 149.645 21.395Q147.118 20.171 145.993 18.73L145.993 18.73 145.993 18.73Q144.868 17.289 144.868 14.605ZM166.382 0L166.382 12.039 166.382 12.039Q167.171 10.382 168.691 9.533L168.691 9.533 168.691 9.533Q170.211 8.684 171.908 8.684L171.908 8.684 171.908 8.684Q180.592 8.684 180.592 18.158L180.592 18.158 180.592 29.605 175.066 29.605 175.066 18.158 175.066 18.158Q175.066 12.829 171.118 12.829L171.118 12.829 171.118 12.829Q169.224 12.829 167.803 14.408L167.803 14.408 167.803 14.408Q166.382 15.987 166.382 18.553L166.382 18.553 166.382 29.605 160.855 29.605 160.855 0 166.382 0ZM188.684 9.079L188.684 29.605 183.158 29.605 183.158 9.079 188.684 9.079M188.151 1.914L188.151 1.914 188.151 1.914Q189.079 2.842 189.079 4.145L189.079 4.145 189.079 4.145Q189.079 5.447 188.151 6.375L188.151 6.375 188.151 6.375Q187.224 7.303 185.921 7.303L185.921 7.303 185.921 7.303Q184.618 7.303 183.691 6.375L183.691 6.375 183.691 6.375Q182.763 5.447 182.763 4.145L182.763 4.145 182.763 4.145Q182.763 2.842 183.691 1.914L183.691 1.914 183.691 1.914Q184.618 0.987 185.921 0.987L185.921 0.987 185.921 0.987Q187.224 0.987 188.151 1.914ZM198.75 8.684L198.75 8.684 198.75 8.684Q203.329 8.684 205.579 11.191L205.579 11.191 205.579 11.191Q207.829 13.697 207.829 17.763L207.829 17.763 207.829 29.605 202.697 29.605 202.697 29.605Q202.303 28.224 202.303 26.645L202.303 26.645 202.303 26.645Q200.842 30 196.974 30L196.974 30 196.974 30Q193.934 30 192.099 28.283L192.099 28.283 192.099 28.283Q190.263 26.566 190.263 23.092L190.263 23.092 190.263 23.092Q190.263 19.934 192.632 17.961L192.632 17.961 192.632 17.961Q195 15.987 198.355 15.987L198.355 15.987 198.355 15.987Q199.342 15.987 200.329 16.184L200.329 16.184 200.329 16.184Q201.316 16.382 201.789 16.579L201.789 16.579 202.303 16.776 202.303 16.776Q202.303 15 201.336 13.914L201.336 13.914 201.336 13.914Q200.368 12.829 198.355 12.829L198.355 12.829 198.355 12.829Q196.697 12.829 195.059 13.125L195.059 13.125 195.059 13.125Q193.421 13.421 192.632 13.737L192.632 13.737 191.842 14.013 191.842 9.868 191.842 9.868Q195.237 8.684 198.75 8.684M202.303 20.921L202.303 20.921 202.303 20.408 202.303 20.408Q200.842 20.132 199.145 20.132L199.145 20.132 199.145 20.132Q197.763 20.132 196.855 20.862L196.855 20.862 196.855 20.862Q195.947 21.592 195.947 23.092L195.947 23.092 195.947 23.092Q195.947 24.395 196.697 25.125L196.697 25.125 196.697 25.125Q197.447 25.855 198.553 25.855L198.553 25.855 198.553 25.855Q200.171 25.855 201.237 24.572L201.237 24.572 201.237 24.572Q202.303 23.289 202.303 20.921Z" ></path></svg></svg>